<?xml version="1.0"?><svg fill="#000000" xmlns="http://www.w3.org/2000/svg"  viewBox="0 0 64 64" width="64px" height="64px">    <path d="M 6 12 C 4.346 12 3 13.346 3 15 L 3 43 C 3 44.654 4.346 46 6 46 L 9 46 L 9 51 C 9 52.654 10.346 54 12 54 L 39.480469 54 C 41.652942 58.153904 45.996659 61 51 61 C 58.168 61 64 55.168 64 48 C 64 44.849621 62.871384 41.959573 61 39.707031 L 61 21 C 61 19.346 59.654 18 58 18 L 53 18 L 53 15 C 53 13.346 51.654 12 50 12 L 6 12 z M 6 14 L 50 14 C 50.551 14 51 14.449 51 15 L 51 18 L 12 18 C 10.346 18 9 19.346 9 21 L 9 44 L 6 44 C 5.449 44 5 43.551 5 43 L 5 15 C 5 14.449 5.449 14 6 14 z M 12 20 L 58 20 C 58.551 20 59 20.449 59 21 L 59 21.457031 L 34.578125 37.365234 C 34.233125 37.610234 33.767875 37.610234 33.421875 37.365234 L 11 21.482422 L 11 21 C 11 20.449 11.449 20 12 20 z M 59 23.845703 L 59 37.775391 C 56.791256 36.043275 54.01798 35 51 35 C 43.832 35 38 40.832 38 48 C 38 49.396052 38.227494 50.738518 38.636719 52 L 12 52 C 11.449 52 11 51.551 11 51 L 11 46.064453 L 22.580078 37.814453 C 23.030078 37.493453 23.134453 36.869922 22.814453 36.419922 C 22.493453 35.970922 21.868922 35.864547 21.419922 36.185547 L 11 43.609375 L 11 23.933594 L 32.265625 38.996094 C 32.788625 39.366094 33.401766 39.550781 34.009766 39.550781 C 34.608766 39.550781 35.202172 39.373531 35.701172 39.019531 L 59 23.845703 z M 51 37 C 57.065 37 62 41.935 62 48 C 62 54.065 57.065 59 51 59 C 44.935 59 40 54.065 40 48 C 40 41.935 44.935 37 51 37 z M 51 42 C 50.74425 42 50.488469 42.097469 50.292969 42.292969 C 49.901969 42.683969 49.901969 43.316031 50.292969 43.707031 L 53.585938 47 L 44 47 C 43.448 47 43 47.448 43 48 C 43 48.552 43.448 49 44 49 L 53.585938 49 L 50.292969 52.292969 C 49.901969 52.683969 49.901969 53.316031 50.292969 53.707031 C 50.487969 53.902031 50.744 54 51 54 C 51.256 54 51.512031 53.902031 51.707031 53.707031 L 56.707031 48.707031 C 56.799031 48.615031 56.872828 48.505813 56.923828 48.382812 C 57.024828 48.137813 57.024828 47.861187 56.923828 47.617188 C 56.872828 47.495188 56.799031 47.384969 56.707031 47.292969 L 51.707031 42.292969 C 51.511531 42.097469 51.25575 42 51 42 z M 14 46 C 13.448 46 13 46.448 13 47 L 13 49 C 13 49.552 13.448 50 14 50 C 14.552 50 15 49.552 15 49 L 15 47 C 15 46.448 14.552 46 14 46 z M 19 46 C 18.448 46 18 46.448 18 47 L 18 49 C 18 49.552 18.448 50 19 50 C 19.552 50 20 49.552 20 49 L 20 47 C 20 46.448 19.552 46 19 46 z M 24 46 C 23.448 46 23 46.448 23 47 L 23 49 C 23 49.552 23.448 50 24 50 C 24.552 50 25 49.552 25 49 L 25 47 C 25 46.448 24.552 46 24 46 z M 29 46 C 28.448 46 28 46.448 28 47 L 28 49 C 28 49.552 28.448 50 29 50 C 29.552 50 30 49.552 30 49 L 30 47 C 30 46.448 29.552 46 29 46 z M 34 46 C 33.448 46 33 46.448 33 47 L 33 49 C 33 49.552 33.448 50 34 50 C 34.552 50 35 49.552 35 49 L 35 47 C 35 46.448 34.552 46 34 46 z"/></svg>