<svg fill="#000000" xmlns="http://www.w3.org/2000/svg"  viewBox="0 0 64 64" width="64px" height="64px"><path d="M 3 6 C 1.347656 6 0 7.347656 0 9 L 0 51 C 0 52.652344 1.347656 54 3 54 L 29.40625 54 L 28.828125 58.042969 C 28.78125 58.355469 28.886719 58.667969 29.109375 58.890625 C 29.296875 59.078125 29.554688 59.183594 29.816406 59.183594 C 29.863281 59.183594 29.910156 59.179688 29.957031 59.171875 L 34.878906 58.46875 L 41.265625 57.796875 C 41.492188 57.769531 41.707031 57.667969 41.867188 57.503906 L 59.707031 39.605469 L 59.710938 39.605469 L 62.535156 36.78125 C 64.484375 34.828125 64.484375 31.65625 62.535156 29.707031 L 58.292969 25.464844 C 57.636719 24.808594 56.839844 24.394531 56 24.175781 L 56 9 C 56 7.347656 54.652344 6 53 6 Z M 3 8 L 53 8 C 53.550781 8 54 8.449219 54 9 L 54 12 L 2 12 L 2 9 C 2 8.449219 2.449219 8 3 8 Z M 2 14 L 54 14 L 54 24.074219 C 52.984375 24.230469 52.003906 24.683594 51.222656 25.464844 L 48.394531 28.292969 C 48.390625 28.296875 48.390625 28.296875 48.390625 28.300781 L 45.359375 31.34375 C 45.347656 31.351563 45.332031 31.351563 45.324219 31.363281 C 45.3125 31.375 45.308594 31.390625 45.296875 31.402344 L 30.550781 46.191406 C 30.394531 46.351563 30.292969 46.558594 30.265625 46.78125 L 29.660156 52 L 3 52 C 2.449219 52 2 51.550781 2 51 Z M 15 18 C 14.746094 18 14.488281 18.097656 14.292969 18.292969 L 11 21.585938 L 9.707031 20.292969 C 9.316406 19.902344 8.683594 19.902344 8.292969 20.292969 C 7.902344 20.683594 7.902344 21.316406 8.292969 21.707031 L 10.292969 23.707031 C 10.488281 23.902344 10.742188 24 11 24 C 11.257813 24 11.511719 23.902344 11.707031 23.707031 L 15.707031 19.707031 C 16.097656 19.316406 16.097656 18.683594 15.707031 18.292969 C 15.511719 18.097656 15.253906 18 15 18 Z M 19 20 C 18.449219 20 18 20.449219 18 21 C 18 21.550781 18.449219 22 19 22 L 23 22 C 23.550781 22 24 21.550781 24 21 C 24 20.449219 23.550781 20 23 20 Z M 27 20 C 26.449219 20 26 20.449219 26 21 C 26 21.550781 26.449219 22 27 22 L 43 22 C 43.550781 22 44 21.550781 44 21 C 44 20.449219 43.550781 20 43 20 Z M 15 26 C 14.746094 26 14.488281 26.097656 14.292969 26.292969 L 11 29.585938 L 9.707031 28.292969 C 9.316406 27.902344 8.683594 27.902344 8.292969 28.292969 C 7.902344 28.683594 7.902344 29.316406 8.292969 29.707031 L 10.292969 31.707031 C 10.488281 31.902344 10.742188 32 11 32 C 11.257813 32 11.511719 31.902344 11.707031 31.707031 L 15.707031 27.707031 C 16.097656 27.316406 16.097656 26.683594 15.707031 26.292969 C 15.511719 26.097656 15.253906 26 15 26 Z M 54.757813 26 C 55.527344 26.003906 56.292969 26.292969 56.878906 26.878906 L 61.121094 31.121094 C 62.289063 32.289063 62.289063 34.191406 61.121094 35.363281 L 59 37.484375 L 50.515625 29 L 52.636719 26.878906 C 53.222656 26.292969 53.988281 26 54.757813 26 Z M 19 28 C 18.449219 28 18 28.449219 18 29 C 18 29.550781 18.449219 30 19 30 L 43 30 C 43.550781 30 44 29.550781 44 29 C 44 28.449219 43.550781 28 43 28 Z M 49.105469 30.417969 L 57.589844 38.902344 L 55.933594 40.5625 L 47.449219 32.078125 Z M 46.035156 33.492188 L 54.519531 41.976563 L 54.453125 42.046875 C 54.34375 42.117188 54.253906 42.207031 54.183594 42.3125 L 41.871094 54.671875 L 41.417969 50.300781 C 41.363281 49.792969 40.933594 49.40625 40.421875 49.40625 L 38.59375 49.40625 L 38.59375 47.988281 L 43.957031 42.625 C 44.347656 42.234375 44.347656 41.605469 43.957031 41.214844 C 43.566406 40.820313 42.933594 40.820313 42.542969 41.214844 L 37.222656 46.53125 L 33.433594 46.132813 Z M 15 34 C 14.746094 34 14.488281 34.097656 14.292969 34.292969 L 11 37.585938 L 9.707031 36.292969 C 9.316406 35.902344 8.683594 35.902344 8.292969 36.292969 C 7.902344 36.683594 7.902344 37.316406 8.292969 37.707031 L 10.292969 39.707031 C 10.488281 39.902344 10.742188 40 11 40 C 11.257813 40 11.511719 39.902344 11.707031 39.707031 L 15.707031 35.707031 C 16.097656 35.316406 16.097656 34.683594 15.707031 34.292969 C 15.511719 34.097656 15.253906 34 15 34 Z M 19 36 C 18.449219 36 18 36.449219 18 37 C 18 37.550781 18.449219 38 19 38 L 31 38 C 31.550781 38 32 37.550781 32 37 C 32 36.449219 31.550781 36 31 36 Z M 6 46 C 5.449219 46 5 46.449219 5 47 L 5 49 C 5 49.550781 5.449219 50 6 50 C 6.550781 50 7 49.550781 7 49 L 7 47 C 7 46.449219 6.550781 46 6 46 Z M 11 46 C 10.449219 46 10 46.449219 10 47 L 10 49 C 10 49.550781 10.449219 50 11 50 C 11.550781 50 12 49.550781 12 49 L 12 47 C 12 46.449219 11.550781 46 11 46 Z M 16 46 C 15.449219 46 15 46.449219 15 47 L 15 49 C 15 49.550781 15.449219 50 16 50 C 16.550781 50 17 49.550781 17 49 L 17 47 C 17 46.449219 16.550781 46 16 46 Z M 21 46 C 20.449219 46 20 46.449219 20 47 L 20 49 C 20 49.550781 20.449219 50 21 50 C 21.550781 50 22 49.550781 22 49 L 22 47 C 22 46.449219 21.550781 46 21 46 Z M 26 46 C 25.449219 46 25 46.449219 25 47 L 25 49 C 25 49.550781 25.449219 50 26 50 C 26.550781 50 27 49.550781 27 49 L 27 47 C 27 46.449219 26.550781 46 26 46 Z M 32.140625 48.011719 L 36.59375 48.480469 L 36.59375 50.40625 C 36.59375 50.957031 37.042969 51.40625 37.59375 51.40625 L 39.519531 51.40625 L 39.988281 55.917969 L 35.136719 56.433594 L 31.574219 52.871094 Z"/></svg>