<svg fill="#000000" xmlns="http://www.w3.org/2000/svg"  viewBox="0 0 64 64" width="64px" height="64px"><path d="M 19.65625 2 C 18.320313 2 17.0625 2.519531 16.121094 3.464844 L 7.464844 12.121094 C 6.519531 13.066406 6 14.320313 6 15.65625 L 6 51 C 6 52.652344 7.347656 54 9 54 L 14 54 L 14 57 C 14 58.652344 15.347656 60 17 60 L 55 60 C 56.652344 60 58 58.652344 58 57 L 58 11 C 58 9.347656 56.652344 8 55 8 L 50 8 L 50 5 C 50 3.347656 48.652344 2 47 2 Z M 20 4 L 47 4 C 47.550781 4 48 4.449219 48 5 L 48 44 C 47.445313 44 47 44.445313 47 45 L 47 47 C 47 47.554688 47.445313 48 48 48 L 48 51 C 48 51.550781 47.550781 52 47 52 L 9 52 C 8.449219 52 8 51.550781 8 51 L 8 48 C 8.554688 48 9 47.554688 9 47 L 9 45 C 9 44.445313 8.554688 44 8 44 L 8 16 L 17 16 C 18.652344 16 20 14.652344 20 13 Z M 18 4.5 L 18 13 C 18 13.550781 17.550781 14 17 14 L 8.5 14 C 8.613281 13.832031 8.738281 13.675781 8.878906 13.535156 L 17.535156 4.878906 C 17.679688 4.734375 17.835938 4.609375 18 4.5 Z M 50 10 L 55 10 C 55.550781 10 56 10.449219 56 11 L 56 57 C 56 57.550781 55.550781 58 55 58 L 17 58 C 16.449219 58 16 57.550781 16 57 L 16 54 L 47 54 C 48.652344 54 50 52.652344 50 51 Z M 17 20 C 16.445313 20 16 20.445313 16 21 C 16 21.554688 16.445313 22 17 22 L 31 22 C 31.554688 22 32 21.554688 32 21 C 32 20.445313 31.554688 20 31 20 Z M 35 20 C 34.445313 20 34 20.445313 34 21 C 34 21.554688 34.445313 22 35 22 L 39 22 C 39.554688 22 40 21.554688 40 21 C 40 20.445313 39.554688 20 39 20 Z M 17 24 C 16.445313 24 16 24.445313 16 25 C 16 25.554688 16.445313 26 17 26 L 35 26 C 35.554688 26 36 25.554688 36 25 C 36 24.445313 35.554688 24 35 24 Z M 17 30 C 16.445313 30 16 30.445313 16 31 C 16 31.554688 16.445313 32 17 32 L 37 32 C 37.554688 32 38 31.554688 38 31 C 38 30.445313 37.554688 30 37 30 Z M 17 34 C 16.445313 34 16 34.445313 16 35 C 16 35.554688 16.445313 36 17 36 L 27 36 C 27.554688 36 28 35.554688 28 35 C 28 34.445313 27.554688 34 27 34 Z M 13 44 C 12.445313 44 12 44.445313 12 45 L 12 47 C 12 47.554688 12.445313 48 13 48 C 13.554688 48 14 47.554688 14 47 L 14 45 C 14 44.445313 13.554688 44 13 44 Z M 18 44 C 17.445313 44 17 44.445313 17 45 L 17 47 C 17 47.554688 17.445313 48 18 48 C 18.554688 48 19 47.554688 19 47 L 19 45 C 19 44.445313 18.554688 44 18 44 Z M 23 44 C 22.445313 44 22 44.445313 22 45 L 22 47 C 22 47.554688 22.445313 48 23 48 C 23.554688 48 24 47.554688 24 47 L 24 45 C 24 44.445313 23.554688 44 23 44 Z M 28 44 C 27.445313 44 27 44.445313 27 45 L 27 47 C 27 47.554688 27.445313 48 28 48 C 28.554688 48 29 47.554688 29 47 L 29 45 C 29 44.445313 28.554688 44 28 44 Z M 33 44 C 32.445313 44 32 44.445313 32 45 L 32 47 C 32 47.554688 32.445313 48 33 48 C 33.554688 48 34 47.554688 34 47 L 34 45 C 34 44.445313 33.554688 44 33 44 Z M 38 44 C 37.445313 44 37 44.445313 37 45 L 37 47 C 37 47.554688 37.445313 48 38 48 C 38.554688 48 39 47.554688 39 47 L 39 45 C 39 44.445313 38.554688 44 38 44 Z M 43 44 C 42.445313 44 42 44.445313 42 45 L 42 47 C 42 47.554688 42.445313 48 43 48 C 43.554688 48 44 47.554688 44 47 L 44 45 C 44 44.445313 43.554688 44 43 44 Z"/></svg>