<?xml version="1.0"?><svg fill="#000000" xmlns="http://www.w3.org/2000/svg"  viewBox="0 0 64 64" width="64px" height="64px">    <path d="M 7 8 C 5.343 8 4 9.343 4 11 L 4 53 C 4 54.657 5.343 56 7 56 L 57 56 C 58.657 56 60 54.657 60 53 L 60 11 C 60 9.343 58.657 8 57 8 L 7 8 z M 7 10 L 57 10 C 57.552 10 58 10.448 58 11 L 58 53 C 58 53.552 57.552 54 57 54 L 7 54 C 6.448 54 6 53.552 6 53 L 6 20 L 47 20 C 47.552 20 48 19.552 48 19 C 48 18.448 47.552 18 47 18 L 6 18 L 6 11 C 6 10.448 6.448 10 7 10 z M 10 12 C 9.448 12 9 12.448 9 13 L 9 15 C 9 15.552 9.448 16 10 16 C 10.552 16 11 15.552 11 15 L 11 13 C 11 12.448 10.552 12 10 12 z M 15 12 C 14.448 12 14 12.448 14 13 L 14 15 C 14 15.552 14.448 16 15 16 C 15.552 16 16 15.552 16 15 L 16 13 C 16 12.448 15.552 12 15 12 z M 20 12 C 19.448 12 19 12.448 19 13 L 19 15 C 19 15.552 19.448 16 20 16 C 20.552 16 21 15.552 21 15 L 21 13 C 21 12.448 20.552 12 20 12 z M 25 12 C 24.448 12 24 12.448 24 13 L 24 15 C 24 15.552 24.448 16 25 16 C 25.552 16 26 15.552 26 15 L 26 13 C 26 12.448 25.552 12 25 12 z M 30 12 C 29.448 12 29 12.448 29 13 L 29 15 C 29 15.552 29.448 16 30 16 C 30.552 16 31 15.552 31 15 L 31 13 C 31 12.448 30.552 12 30 12 z M 35 12 C 34.448 12 34 12.448 34 13 L 34 15 C 34 15.552 34.448 16 35 16 C 35.552 16 36 15.552 36 15 L 36 13 C 36 12.448 35.552 12 35 12 z M 40 12 C 39.448 12 39 12.448 39 13 L 39 15 C 39 15.552 39.448 16 40 16 C 40.552 16 41 15.552 41 15 L 41 13 C 41 12.448 40.552 12 40 12 z M 45 12 C 44.448 12 44 12.448 44 13 L 44 15 C 44 15.552 44.448 16 45 16 C 45.552 16 46 15.552 46 15 L 46 13 C 46 12.448 45.552 12 45 12 z M 50 12 C 49.448 12 49 12.448 49 13 L 49 15 C 49 15.552 49.448 16 50 16 C 50.552 16 51 15.552 51 15 L 51 13 C 51 12.448 50.552 12 50 12 z M 55 12 C 54.448 12 54 12.448 54 13 L 54 15 C 54 15.552 54.448 16 55 16 C 55.552 16 56 15.552 56 15 L 56 13 C 56 12.448 55.552 12 55 12 z M 51.005859 18 C 50.453859 18 50.005859 18.448 50.005859 19 C 50.005859 19.552 50.453859 20 51.005859 20 L 55.005859 20 C 55.557859 20 56.005859 19.552 56.005859 19 C 56.005859 18.448 55.558859 18 55.005859 18 L 51.005859 18 z M 20.005859 22 C 13.378859 22 8.0058594 27.373 8.0058594 34 C 8.0058594 40.627 13.378859 46 20.005859 46 C 26.632859 46 32.005859 40.627 32.005859 34 C 32.005859 27.373 26.633859 22 20.005859 22 z M 44.005859 22 C 43.453859 22 43.005859 22.447 43.005859 23 C 43.005859 23.553 43.453859 24 44.005859 24 L 47.591797 24 L 39.298828 32.292969 C 38.907828 32.683969 38.907828 33.316031 39.298828 33.707031 C 39.493828 33.902031 39.749859 34 40.005859 34 C 40.261859 34 40.517891 33.902031 40.712891 33.707031 L 49.005859 25.414062 L 49.005859 29 C 49.005859 29.553 49.453859 30 50.005859 30 C 50.558859 30 51.005859 29.553 51.005859 29 L 51.005859 23 C 51.005859 22.868977 50.977092 22.738156 50.925781 22.615234 C 50.823903 22.371842 50.630523 22.176912 50.386719 22.076172 C 50.264523 22.025555 50.135993 22 50.005859 22 L 44.005859 22 z M 20.005859 23.990234 C 25.524859 23.990234 30.013672 28.482 30.013672 34 C 30.013672 39.518 25.524859 44.009766 20.005859 44.009766 C 14.487859 44.009766 9.9960938 39.519 9.9960938 34 C 9.9960938 28.481 14.486859 23.990234 20.005859 23.990234 z M 20.005859 25 C 19.453859 25 19.005859 25.448 19.005859 26 L 19.005859 27 C 16.796859 27 15.005859 28.791 15.005859 31 C 15.005859 33.209 16.796859 35 19.005859 35 L 21.005859 35 C 22.110859 35 23.005859 35.895 23.005859 37 C 23.005859 38.105 22.110859 39 21.005859 39 L 21.005859 37 C 21.005859 36.448 20.557859 36 20.005859 36 C 19.453859 36 19.005859 36.448 19.005859 37 L 19.005859 39 C 17.900859 39 17.005859 38.105 17.005859 37 C 17.005859 36.448 16.557859 36 16.005859 36 C 15.453859 36 15.005859 36.448 15.005859 37 C 15.005859 39.209 16.796859 41 19.005859 41 L 19.005859 42 C 19.005859 42.552 19.453859 43 20.005859 43 C 20.557859 43 21.005859 42.552 21.005859 42 L 21.005859 41 C 23.214859 41 25.005859 39.209 25.005859 37 C 25.005859 34.791 23.214859 33 21.005859 33 L 21.005859 31 C 21.005859 30.448 20.557859 30 20.005859 30 C 19.453859 30 19.005859 30.448 19.005859 31 L 19.005859 33 C 17.900859 33 17.005859 32.105 17.005859 31 C 17.005859 29.895 17.900859 29 19.005859 29 L 21.005859 29 C 22.110859 29 23.005859 29.895 23.005859 31 C 23.005859 31.552 23.453859 32 24.005859 32 C 24.557859 32 25.005859 31.552 25.005859 31 C 25.005859 28.791 23.214859 27 21.005859 27 L 21.005859 26 C 21.005859 25.448 20.557859 25 20.005859 25 z M 45 32 C 44.448 32 44 32.448 44 33 L 44 38 L 39 38 C 38.448 38 38 38.448 38 39 L 38 44 L 33 44 C 32.448 44 32 44.448 32 45 L 32 50 L 20 50 L 13 50 C 12.448 50 12 50.448 12 51 C 12 51.552 12.448 52 13 52 L 53 52 C 53.552 52 54 51.552 54 51 C 54 50.448 53.552 50 53 50 L 52 50 L 52 33 C 52 32.448 51.552 32 51 32 L 45 32 z M 46 34 L 50 34 L 50 50 L 46 50 L 46 34 z M 36.822266 35.183594 C 36.566516 35.183594 36.310734 35.281063 36.115234 35.476562 L 33.949219 37.642578 C 33.558219 38.033578 33.558219 38.665641 33.949219 39.056641 C 34.144219 39.251641 34.40025 39.349609 34.65625 39.349609 C 34.91225 39.349609 35.168281 39.251641 35.363281 39.056641 L 37.529297 36.890625 C 37.920297 36.499625 37.920297 35.867562 37.529297 35.476562 C 37.333797 35.281062 37.078016 35.183594 36.822266 35.183594 z M 40 40 L 44 40 L 44 50 L 40 50 L 40 40 z M 34 46 L 38 46 L 38 50 L 34 50 L 34 46 z"/></svg>