<svg fill="#000000" xmlns="http://www.w3.org/2000/svg"  viewBox="0 0 50 50" width="50px" height="50px"><path d="M 12.691406 0 L 11.564453 2.3320312 L 9 2.6386719 L 10.949219 4.3613281 L 10.435547 7 L 12.691406 5.6816406 L 14.949219 7 L 14.435547 4.3613281 L 16.384766 2.6386719 L 13.820312 2.3320312 L 12.691406 0 z M 14.949219 7 L 10.435547 7 L 9.3007812 7 C 6.3730036 7 4 9.3730039 4 12.300781 L 4 45 A 1.0001 1.0001 0 0 0 5 46 L 45 46 A 1.0001 1.0001 0 0 0 46 45 L 46 12.300781 C 46 9.3730039 43.626997 7 40.699219 7 L 39.564453 7 L 35.050781 7 L 31.359375 7 L 26.845703 7 L 23.154297 7 L 18.640625 7 L 14.949219 7 z M 18.640625 7 L 20.896484 5.6816406 L 23.154297 7 L 22.640625 4.3613281 L 24.589844 2.6386719 L 22.025391 2.3320312 L 20.896484 0 L 19.769531 2.3320312 L 17.205078 2.6386719 L 19.154297 4.3613281 L 18.640625 7 z M 26.845703 7 L 29.103516 5.6816406 L 31.359375 7 L 30.845703 4.3613281 L 32.794922 2.6386719 L 30.230469 2.3320312 L 29.103516 0 L 27.974609 2.3320312 L 25.410156 2.6386719 L 27.359375 4.3613281 L 26.845703 7 z M 35.050781 7 L 37.308594 5.6816406 L 39.564453 7 L 39.050781 4.3613281 L 41 2.6386719 L 38.435547 2.3320312 L 37.308594 0 L 36.179688 2.3320312 L 33.615234 2.6386719 L 35.564453 4.3613281 L 35.050781 7 z M 9.3007812 9 L 40.699219 9 C 42.571441 9 44 10.428559 44 12.300781 L 44 44 L 29 44 L 29 36 A 1.0001 1.0001 0 0 0 28 35 L 22 35 A 1.0001 1.0001 0 0 0 21 36 L 21 44 L 6 44 L 6 12.300781 C 6 10.428559 7.4285592 9 9.3007812 9 z M 10 11 A 1.0001 1.0001 0 0 0 9 12 L 9 16 A 1.0001 1.0001 0 0 0 10 17 L 16 17 A 1.0001 1.0001 0 0 0 17 16 L 17 12 A 1.0001 1.0001 0 0 0 16 11 L 10 11 z M 22 11 A 1.0001 1.0001 0 0 0 21 12 L 21 16 A 1.0001 1.0001 0 0 0 22 17 L 28 17 A 1.0001 1.0001 0 0 0 29 16 L 29 12 A 1.0001 1.0001 0 0 0 28 11 L 22 11 z M 34 11 A 1.0001 1.0001 0 0 0 33 12 L 33 16 A 1.0001 1.0001 0 0 0 34 17 L 40 17 A 1.0001 1.0001 0 0 0 41 16 L 41 12 A 1.0001 1.0001 0 0 0 40 11 L 34 11 z M 11 13 L 15 13 L 15 15 L 11 15 L 11 13 z M 23 13 L 27 13 L 27 15 L 23 15 L 23 13 z M 35 13 L 39 13 L 39 15 L 35 15 L 35 13 z M 10 19 A 1.0001 1.0001 0 0 0 9 20 L 9 24 A 1.0001 1.0001 0 0 0 10 25 L 16 25 A 1.0001 1.0001 0 0 0 17 24 L 17 20 A 1.0001 1.0001 0 0 0 16 19 L 10 19 z M 22 19 A 1.0001 1.0001 0 0 0 21 20 L 21 24 A 1.0001 1.0001 0 0 0 22 25 L 28 25 A 1.0001 1.0001 0 0 0 29 24 L 29 20 A 1.0001 1.0001 0 0 0 28 19 L 22 19 z M 34 19 A 1.0001 1.0001 0 0 0 33 20 L 33 24 A 1.0001 1.0001 0 0 0 34 25 L 40 25 A 1.0001 1.0001 0 0 0 41 24 L 41 20 A 1.0001 1.0001 0 0 0 40 19 L 34 19 z M 11 21 L 15 21 L 15 23 L 11 23 L 11 21 z M 23 21 L 27 21 L 27 23 L 23 23 L 23 21 z M 35 21 L 39 21 L 39 23 L 35 23 L 35 21 z M 10 27 A 1.0001 1.0001 0 0 0 9 28 L 9 32 A 1.0001 1.0001 0 0 0 10 33 L 16 33 A 1.0001 1.0001 0 0 0 17 32 L 17 28 A 1.0001 1.0001 0 0 0 16 27 L 10 27 z M 22 27 A 1.0001 1.0001 0 0 0 21 28 L 21 32 A 1.0001 1.0001 0 0 0 22 33 L 28 33 A 1.0001 1.0001 0 0 0 29 32 L 29 28 A 1.0001 1.0001 0 0 0 28 27 L 22 27 z M 34 27 A 1.0001 1.0001 0 0 0 33 28 L 33 32 A 1.0001 1.0001 0 0 0 34 33 L 40 33 A 1.0001 1.0001 0 0 0 41 32 L 41 28 A 1.0001 1.0001 0 0 0 40 27 L 34 27 z M 11 29 L 15 29 L 15 31 L 11 31 L 11 29 z M 23 29 L 27 29 L 27 31 L 23 31 L 23 29 z M 35 29 L 39 29 L 39 31 L 35 31 L 35 29 z M 10 35 A 1.0001 1.0001 0 0 0 9 36 L 9 40 A 1.0001 1.0001 0 0 0 10 41 L 16 41 A 1.0001 1.0001 0 0 0 17 40 L 17 36 A 1.0001 1.0001 0 0 0 16 35 L 10 35 z M 34 35 A 1.0001 1.0001 0 0 0 33 36 L 33 40 A 1.0001 1.0001 0 0 0 34 41 L 40 41 A 1.0001 1.0001 0 0 0 41 40 L 41 36 A 1.0001 1.0001 0 0 0 40 35 L 34 35 z M 11 37 L 15 37 L 15 39 L 11 39 L 11 37 z M 23 37 L 27 37 L 27 44 L 23 44 L 23 37 z M 35 37 L 39 37 L 39 39 L 35 39 L 35 37 z"/></svg>