<?xml version="1.0"?><svg fill="#000000" xmlns="http://www.w3.org/2000/svg"  viewBox="0 0 30 30" width="30px" height="30px">    <path d="M 20.779297 1 C 20.524297 1 20.30925 1.1923125 20.28125 1.4453125 L 20.240234 1.8242188 C 20.193234 2.2472188 19.88275 2.5895 19.46875 2.6875 C 19.36575 2.7125 19.261156 2.7375781 19.160156 2.7675781 C 18.754156 2.8855781 18.318359 2.7452969 18.068359 2.4042969 L 17.84375 2.0996094 C 17.69275 1.8946094 17.412406 1.8358906 17.191406 1.9628906 L 16.808594 2.1835938 C 16.587594 2.3105937 16.497609 2.5834062 16.599609 2.8164062 L 16.755859 3.1699219 C 16.925859 3.5579219 16.828484 4.0068281 16.521484 4.2988281 C 16.445484 4.3708281 16.371828 4.4454844 16.298828 4.5214844 C 16.005828 4.8284844 15.556969 4.9268594 15.167969 4.7558594 L 14.814453 4.6015625 C 14.581453 4.4995625 14.308641 4.5875937 14.181641 4.8085938 L 13.960938 5.1914062 C 13.833937 5.4124063 13.892656 5.6947031 14.097656 5.8457031 L 14.402344 6.0703125 C 14.743344 6.3203125 14.883625 6.7561094 14.765625 7.1621094 C 14.736625 7.2631094 14.710547 7.36575 14.685547 7.46875 C 14.587547 7.88275 14.245266 8.1932344 13.822266 8.2402344 L 13.443359 8.2832031 C 13.191359 8.3102031 13 8.5242969 13 8.7792969 L 13 9.2207031 C 13 9.4757031 13.192312 9.69075 13.445312 9.71875 L 13.824219 9.7597656 C 14.247219 9.8067656 14.587547 10.11725 14.685547 10.53125 C 14.710547 10.63425 14.737578 10.738844 14.767578 10.839844 C 14.885578 11.245844 14.745297 11.681641 14.404297 11.931641 L 14.097656 12.15625 C 13.892656 12.30725 13.833937 12.587594 13.960938 12.808594 L 14.181641 13.191406 C 14.308641 13.412406 14.583406 13.502391 14.816406 13.400391 L 15.169922 13.244141 C 15.557922 13.074141 16.006828 13.171516 16.298828 13.478516 C 16.370828 13.554516 16.445484 13.628172 16.521484 13.701172 C 16.828484 13.994172 16.926859 14.443031 16.755859 14.832031 L 16.599609 15.185547 C 16.497609 15.418547 16.587594 15.690359 16.808594 15.818359 L 17.191406 16.039062 C 17.412406 16.166062 17.69275 16.107344 17.84375 15.902344 L 18.068359 15.597656 C 18.318359 15.256656 18.754156 15.116375 19.160156 15.234375 C 19.261156 15.263375 19.36575 15.289453 19.46875 15.314453 C 19.88275 15.412453 20.193234 15.754734 20.240234 16.177734 L 20.28125 16.556641 C 20.30925 16.808641 20.524297 17 20.779297 17 L 21.220703 17 C 21.475703 17 21.69075 16.807688 21.71875 16.554688 L 21.759766 16.175781 C 21.806766 15.752781 22.11725 15.412453 22.53125 15.314453 C 22.63425 15.289453 22.738844 15.261422 22.839844 15.232422 C 23.245844 15.114422 23.681641 15.254703 23.931641 15.595703 L 24.15625 15.902344 C 24.30725 16.107344 24.587594 16.166062 24.808594 16.039062 L 25.191406 15.818359 C 25.412406 15.691359 25.502391 15.416594 25.400391 15.183594 L 25.244141 14.830078 C 25.074141 14.442078 25.171516 13.994172 25.478516 13.701172 C 25.554516 13.629172 25.628172 13.554516 25.701172 13.478516 C 25.994172 13.171516 26.442078 13.073141 26.830078 13.244141 L 27.183594 13.398438 C 27.416594 13.500438 27.690359 13.412406 27.818359 13.191406 L 28.039062 12.808594 C 28.166062 12.587594 28.107344 12.305297 27.902344 12.154297 L 27.595703 11.929688 C 27.254703 11.679688 27.114422 11.243891 27.232422 10.837891 C 27.261422 10.736891 27.289453 10.63425 27.314453 10.53125 C 27.412453 10.11725 27.752781 9.8067656 28.175781 9.7597656 L 28.556641 9.7167969 C 28.808641 9.6897969 29 9.4757031 29 9.2207031 L 29 8.7792969 C 29 8.5242969 28.807688 8.30925 28.554688 8.28125 L 28.175781 8.2402344 C 27.752781 8.1932344 27.4105 7.88275 27.3125 7.46875 C 27.2875 7.36575 27.262422 7.2611563 27.232422 7.1601562 C 27.114422 6.7541563 27.254703 6.3183594 27.595703 6.0683594 L 27.900391 5.84375 C 28.105391 5.69275 28.164109 5.4124062 28.037109 5.1914062 L 27.816406 4.8085938 C 27.689406 4.5875937 27.416594 4.4976094 27.183594 4.5996094 L 26.830078 4.7558594 C 26.442078 4.9258594 25.992219 4.8284844 25.699219 4.5214844 C 25.627219 4.4454844 25.552563 4.3718281 25.476562 4.2988281 C 25.169563 4.0058281 25.071188 3.5579219 25.242188 3.1699219 L 25.398438 2.8164062 C 25.500438 2.5834062 25.410453 2.3096406 25.189453 2.1816406 L 24.806641 1.9609375 C 24.585641 1.8339375 24.305297 1.8926562 24.154297 2.0976562 L 23.929688 2.4042969 C 23.679688 2.7452969 23.243891 2.8855781 22.837891 2.7675781 C 22.736891 2.7385781 22.632297 2.7105469 22.529297 2.6855469 C 22.115297 2.5875469 21.804813 2.2472187 21.757812 1.8242188 L 21.716797 1.4453125 C 21.690797 1.1923125 21.475703 1 21.220703 1 L 20.779297 1 z M 21 5 C 23.209 5 25 6.791 25 9 C 25 11.209 23.209 13 21 13 C 18.791 13 17 11.209 17 9 C 17 6.791 18.791 5 21 5 z M 5.7792969 6 C 5.5242969 6 5.30925 6.1923125 5.28125 6.4453125 L 5.2714844 6.5449219 C 5.2384844 6.8479219 5.0235156 7.1046406 4.7285156 7.1816406 C 4.2455156 7.3076406 3.7929062 7.5018125 3.3789062 7.7578125 C 3.1939062 7.8728125 2.9590625 7.8684219 2.7890625 7.7324219 L 2.5800781 7.5644531 C 2.3810781 7.4054531 2.0940625 7.4215625 1.9140625 7.6015625 L 1.6015625 7.9140625 C 1.4215625 8.0940625 1.4054531 8.3810781 1.5644531 8.5800781 L 1.7324219 8.7890625 C 1.8684219 8.9590625 1.8728125 9.1929062 1.7578125 9.3789062 C 1.5018125 9.7929062 1.3056875 10.245516 1.1796875 10.728516 C 1.1026875 11.023516 0.84696875 11.238484 0.54296875 11.271484 L 0.44335938 11.28125 C 0.19135938 11.30925 0 11.524297 0 11.779297 L 0 12.220703 C 0 12.475703 0.1923125 12.69075 0.4453125 12.71875 L 0.54492188 12.728516 C 0.84792187 12.762516 1.1046406 12.976484 1.1816406 13.271484 C 1.3076406 13.754484 1.5018125 14.207094 1.7578125 14.621094 C 1.8728125 14.806094 1.8684219 15.040938 1.7324219 15.210938 L 1.5644531 15.419922 C 1.4054531 15.618922 1.4205625 15.905938 1.6015625 16.085938 L 1.9121094 16.398438 C 2.0921094 16.578437 2.379125 16.594547 2.578125 16.435547 L 2.7871094 16.267578 C 2.9571094 16.131578 3.1929063 16.127188 3.3789062 16.242188 C 3.7929063 16.498188 4.2455156 16.692359 4.7285156 16.818359 C 5.0235156 16.895359 5.2365313 17.151078 5.2695312 17.455078 L 5.28125 17.554688 C 5.31025 17.807687 5.5242969 18 5.7792969 18 L 6.2207031 18 C 6.4757031 18 6.69075 17.807688 6.71875 17.554688 L 6.7285156 17.455078 C 6.7615156 17.152078 6.9764844 16.895359 7.2714844 16.818359 C 7.7544844 16.692359 8.2070937 16.498187 8.6210938 16.242188 C 8.8060938 16.127188 9.0409375 16.131578 9.2109375 16.267578 L 9.4199219 16.435547 C 9.6189219 16.594547 9.9059375 16.579437 10.085938 16.398438 L 10.398438 16.085938 C 10.578437 15.905938 10.594547 15.618922 10.435547 15.419922 L 10.267578 15.210938 C 10.131578 15.040938 10.127188 14.807094 10.242188 14.621094 C 10.498188 14.207094 10.692359 13.754484 10.818359 13.271484 C 10.895359 12.976484 11.151078 12.761516 11.455078 12.728516 L 11.554688 12.71875 C 11.807687 12.69075 12 12.475703 12 12.220703 L 12 11.779297 C 12 11.524297 11.807688 11.30925 11.554688 11.28125 L 11.455078 11.271484 C 11.152078 11.238484 10.895359 11.023516 10.818359 10.728516 C 10.692359 10.245516 10.498187 9.7929062 10.242188 9.3789062 C 10.127187 9.1939062 10.131578 8.9590625 10.267578 8.7890625 L 10.435547 8.5800781 C 10.594547 8.3810781 10.579437 8.0940625 10.398438 7.9140625 L 10.085938 7.6015625 C 9.9059375 7.4215625 9.6189219 7.4054531 9.4199219 7.5644531 L 9.2109375 7.7324219 C 9.0409375 7.8684219 8.8070938 7.8728125 8.6210938 7.7578125 C 8.2070938 7.5018125 7.7544844 7.3056875 7.2714844 7.1796875 C 6.9764844 7.1036875 6.7615156 6.8479219 6.7285156 6.5449219 L 6.71875 6.4453125 C 6.69075 6.1923125 6.4757031 6 6.2207031 6 L 5.7792969 6 z M 21 7 C 19.895 7 19 7.895 19 9 C 19 10.105 19.895 11 21 11 C 22.105 11 23 10.105 23 9 C 23 7.895 22.105 7 21 7 z M 6 9 C 7.657 9 9 10.343 9 12 C 9 13.657 7.657 15 6 15 C 4.343 15 3 13.657 3 12 C 3 10.343 4.343 9 6 9 z M 6 11 C 5.448 11 5 11.448 5 12 C 5 12.552 5.448 13 6 13 C 6.552 13 7 12.552 7 12 C 7 11.448 6.552 11 6 11 z M 18.023438 18 C 17.831297 17.996016 17.646328 18.098391 17.548828 18.275391 L 17.410156 18.523438 C 17.299156 18.725438 17.07175 18.824109 16.84375 18.787109 C 16.33475 18.705109 15.813063 18.699484 15.289062 18.771484 C 14.969062 18.815484 14.656953 18.650188 14.501953 18.367188 L 14.449219 18.275391 C 14.319219 18.038391 14.033203 17.939969 13.783203 18.042969 L 13.351562 18.220703 C 13.102562 18.323703 12.969922 18.598422 13.044922 18.857422 L 13.074219 18.958984 C 13.164219 19.268984 13.059734 19.607734 12.802734 19.802734 C 12.381734 20.121734 12.015844 20.494109 11.714844 20.912109 C 11.579844 21.099109 11.349906 21.192906 11.128906 21.128906 L 10.855469 21.048828 C 10.596469 20.973828 10.32175 21.105469 10.21875 21.355469 L 10.039062 21.787109 C 9.9360625 22.036109 10.037437 22.323125 10.273438 22.453125 L 10.523438 22.591797 C 10.725437 22.702797 10.823109 22.930203 10.787109 23.158203 C 10.705109 23.667203 10.697531 24.188891 10.769531 24.712891 C 10.813531 25.032891 10.650188 25.346953 10.367188 25.501953 L 10.275391 25.552734 C 10.038391 25.682734 9.9380156 25.96875 10.041016 26.21875 L 10.220703 26.650391 C 10.323703 26.899391 10.598422 27.032031 10.857422 26.957031 L 10.957031 26.927734 C 11.267031 26.837734 11.605781 26.942219 11.800781 27.199219 C 12.119781 27.620219 12.494109 27.986109 12.912109 28.287109 C 13.099109 28.422109 13.190953 28.652047 13.126953 28.873047 L 13.048828 29.146484 C 12.973828 29.405484 13.103516 29.679203 13.353516 29.783203 L 13.785156 29.962891 C 14.034156 30.065891 14.322125 29.964516 14.453125 29.728516 L 14.589844 29.480469 C 14.700844 29.278469 14.92825 29.180797 15.15625 29.216797 C 15.66525 29.298797 16.188891 29.304422 16.712891 29.232422 C 17.032891 29.188422 17.345 29.353719 17.5 29.636719 L 17.550781 29.728516 C 17.680781 29.965516 17.96875 30.065891 18.21875 29.962891 L 18.650391 29.783203 C 18.899391 29.680203 19.030078 29.405484 18.955078 29.146484 L 18.927734 29.044922 C 18.837734 28.734922 18.942219 28.396172 19.199219 28.201172 C 19.620219 27.882172 19.984156 27.509797 20.285156 27.091797 C 20.420156 26.904797 20.652047 26.812953 20.873047 26.876953 L 21.146484 26.955078 C 21.405484 27.030078 21.680203 26.898437 21.783203 26.648438 L 21.962891 26.216797 C 22.065891 25.967797 21.965516 25.680781 21.728516 25.550781 L 21.478516 25.414062 C 21.276516 25.303062 21.178844 25.075656 21.214844 24.847656 C 21.296844 24.338656 21.304422 23.816969 21.232422 23.292969 C 21.188422 22.972969 21.351766 22.658906 21.634766 22.503906 L 21.726562 22.453125 C 21.963562 22.323125 22.063938 22.035156 21.960938 21.785156 L 21.78125 21.353516 C 21.67625 21.102516 21.403531 20.970875 21.144531 21.046875 L 21.042969 21.076172 C 20.732969 21.166172 20.394219 21.061687 20.199219 20.804688 C 19.880219 20.383688 19.507844 20.017797 19.089844 19.716797 C 18.902844 19.581797 18.809047 19.351859 18.873047 19.130859 L 18.953125 18.857422 C 19.028125 18.598422 18.896484 18.323703 18.646484 18.220703 L 18.214844 18.041016 C 18.152594 18.015266 18.087484 18.001328 18.023438 18 z M 16 21 C 17.657 21 19 22.343 19 24 C 19 25.657 17.657 27 16 27 C 14.343 27 13 25.657 13 24 C 13 22.343 14.343 21 16 21 z M 16 23 C 15.448 23 15 23.448 15 24 C 15 24.552 15.448 25 16 25 C 16.552 25 17 24.552 17 24 C 17 23.448 16.552 23 16 23 z"/></svg>