<svg fill="#000000" xmlns="http://www.w3.org/2000/svg"  viewBox="0 0 100 100" width="100px" height="100px"><path d="M 25 14 C 21.134 14 18 17.134 18 21 L 18 79 C 18 82.866 21.134 86 25 86 L 53.347656 86 C 54.171862 88.329341 56.388126 90 59 90 L 80 90 C 83.314 90 86 87.314 86 84 L 86 52 L 86.5 52 C 87.327 52 88 51.327 88 50.5 L 88 45.5 C 88 44.673 87.327 44 86.5 44 L 86 44 L 86 41 C 86 37.686 83.314 35 80 35 L 71 35 L 71 31 L 71.5 31 C 72.327 31 73 30.327 73 29.5 L 73 24.5 C 73 23.673 72.327 23 71.5 23 L 71 23 L 71 21 C 71 17.134 67.866 14 64 14 L 25 14 z M 25 16 L 64 16 C 66.761 16 69 18.239 69 21 L 69 35 L 59 35 C 55.686 35 53 37.686 53 41 L 53 72 L 24 72 L 24 66.5 C 24 66.224 23.776 66 23.5 66 C 23.224 66 23 66.224 23 66.5 L 23 72.5 C 23 72.776 23.224 73 23.5 73 L 53 73 L 53 84 L 25 84 C 22.239 84 20 81.761 20 79 L 20 21 C 20 18.239 22.239 16 25 16 z M 40.501953 19 C 40.225953 19 40.001953 19.224 40.001953 19.5 C 40.001953 19.776 40.225953 20 40.501953 20 L 48.5 20 C 48.776 20 49 19.776 49 19.5 C 49 19.224 48.776 19 48.5 19 L 40.501953 19 z M 23.5 23 C 23.224 23 23 23.224 23 23.5 L 23 56.5 C 23 56.776 23.224 57 23.5 57 C 23.776 57 24 56.776 24 56.5 L 24 24 L 61.5 24 C 61.776 24 62 23.776 62 23.5 C 62 23.224 61.776 23 61.5 23 L 23.5 23 z M 65.5 23 C 65.224 23 65 23.224 65 23.5 L 65 27.5 C 65 27.776 65.224 28 65.5 28 C 65.776 28 66 27.776 66 27.5 L 66 23.5 C 66 23.224 65.776 23 65.5 23 z M 71 24 L 71.5 24 C 71.775 24 72 24.224 72 24.5 L 72 29.5 C 72 29.776 71.775 30 71.5 30 L 71 30 L 71 24 z M 65.5 29 C 65.224 29 65 29.224 65 29.5 L 65 30.5 C 65 30.776 65.224 31 65.5 31 C 65.776 31 66 30.776 66 30.5 L 66 29.5 C 66 29.224 65.776 29 65.5 29 z M 59 37 L 80 37 C 82.209 37 84 38.791 84 41 L 84 84 C 84 86.209 82.209 88 80 88 L 59 88 C 56.791 88 55 86.209 55 84 L 55 41 C 55 38.791 56.791 37 59 37 z M 67.5 39 C 67.224 39 67 39.224 67 39.5 C 67 39.776 67.224 40 67.5 40 L 71.498047 40 C 71.774047 40 71.998047 39.776 71.998047 39.5 C 71.998047 39.224 71.774047 39 71.498047 39 L 67.5 39 z M 57.5 42 C 57.224 42 57 42.224 57 42.5 L 57 56.5 C 57 56.776 57.224 57 57.5 57 C 57.776 57 58 56.776 58 56.5 L 58 43 L 77.5 43 C 77.776 43 78 42.776 78 42.5 C 78 42.224 77.776 42 77.5 42 L 57.5 42 z M 81.5 42 C 81.224 42 81 42.224 81 42.5 L 81 46.5 C 81 46.776 81.224 47 81.5 47 C 81.776 47 82 46.776 82 46.5 L 82 42.5 C 82 42.224 81.776 42 81.5 42 z M 86 45 L 86.5 45 C 86.775 45 87 45.224 87 45.5 L 87 50.5 C 87 50.776 86.775 51 86.5 51 L 86 51 L 86 45 z M 61.5 46 C 60.673 46 60 46.673 60 47.5 L 60 49.5 C 60 50.327 60.673 51 61.5 51 L 63.5 51 C 64.327 51 65 50.327 65 49.5 L 65 47.5 C 65 46.673 64.327 46 63.5 46 L 61.5 46 z M 68.5 46 C 67.673 46 67 46.673 67 47.5 L 67 49.5 C 67 50.327 67.673 51 68.5 51 L 70.5 51 C 71.327 51 72 50.327 72 49.5 L 72 47.5 C 72 46.673 71.327 46 70.5 46 L 68.5 46 z M 75.5 46 C 74.673 46 74 46.673 74 47.5 L 74 49.5 C 74 50.327 74.673 51 75.5 51 L 77.5 51 C 78.327 51 79 50.327 79 49.5 L 79 47.5 C 79 46.673 78.327 46 77.5 46 L 75.5 46 z M 61.5 47 L 63.5 47 C 63.775 47 64 47.224 64 47.5 L 64 49.5 C 64 49.776 63.775 50 63.5 50 L 61.5 50 C 61.225 50 61 49.776 61 49.5 L 61 47.5 C 61 47.224 61.225 47 61.5 47 z M 68.5 47 L 70.5 47 C 70.775 47 71 47.224 71 47.5 L 71 49.5 C 71 49.776 70.775 50 70.5 50 L 68.5 50 C 68.225 50 68 49.776 68 49.5 L 68 47.5 C 68 47.224 68.225 47 68.5 47 z M 75.5 47 L 77.5 47 C 77.775 47 78 47.224 78 47.5 L 78 49.5 C 78 49.776 77.775 50 77.5 50 L 75.5 50 C 75.225 50 75 49.776 75 49.5 L 75 47.5 C 75 47.224 75.225 47 75.5 47 z M 81.5 48 C 81.224 48 81 48.224 81 48.5 L 81 49.5 C 81 49.776 81.224 50 81.5 50 C 81.776 50 82 49.776 82 49.5 L 82 48.5 C 82 48.224 81.776 48 81.5 48 z M 61.5 53 C 60.673 53 60 53.673 60 54.5 L 60 56.5 C 60 57.327 60.673 58 61.5 58 L 63.5 58 C 64.327 58 65 57.327 65 56.5 L 65 54.5 C 65 53.673 64.327 53 63.5 53 L 61.5 53 z M 68.5 53 C 67.673 53 67 53.673 67 54.5 L 67 56.5 C 67 57.327 67.673 58 68.5 58 L 70.5 58 C 71.327 58 72 57.327 72 56.5 L 72 54.5 C 72 53.673 71.327 53 70.5 53 L 68.5 53 z M 75.5 53 C 74.673 53 74 53.673 74 54.5 L 74 56.5 C 74 57.327 74.673 58 75.5 58 L 77.5 58 C 78.327 58 79 57.327 79 56.5 L 79 54.5 C 79 53.673 78.327 53 77.5 53 L 75.5 53 z M 61.5 54 L 63.5 54 C 63.775 54 64 54.224 64 54.5 L 64 56.5 C 64 56.776 63.775 57 63.5 57 L 61.5 57 C 61.225 57 61 56.776 61 56.5 L 61 54.5 C 61 54.224 61.225 54 61.5 54 z M 68.5 54 L 70.5 54 C 70.775 54 71 54.224 71 54.5 L 71 56.5 C 71 56.776 70.775 57 70.5 57 L 68.5 57 C 68.225 57 68 56.776 68 56.5 L 68 54.5 C 68 54.224 68.225 54 68.5 54 z M 75.5 54 L 77.5 54 C 77.775 54 78 54.224 78 54.5 L 78 56.5 C 78 56.776 77.775 57 77.5 57 L 75.5 57 C 75.225 57 75 56.776 75 56.5 L 75 54.5 C 75 54.224 75.225 54 75.5 54 z M 81.5 54 C 81.224 54 81 54.224 81 54.5 L 81 78 L 58 78 L 58 66.5 L 58 64.5 C 58 64.224 57.776 64 57.5 64 C 57.224 64 57 64.224 57 64.5 L 57 66.5 L 57 78.5 C 57 78.776 57.224 79 57.5 79 L 81.5 79 C 81.776 79 82 78.776 82 78.5 L 82 54.5 C 82 54.224 81.776 54 81.5 54 z M 23.5 62 C 23.224 62 23 62.224 23 62.5 L 23 64.5 C 23 64.776 23.224 65 23.5 65 C 23.776 65 24 64.776 24 64.5 L 24 62.5 C 24 62.224 23.776 62 23.5 62 z M 44.5 75 C 42.57 75 41 76.57 41 78.5 C 41 80.43 42.57 82 44.5 82 C 46.43 82 48 80.43 48 78.5 C 48 76.57 46.43 75 44.5 75 z M 44.5 76 C 45.879 76 47 77.122 47 78.5 C 47 79.878 45.879 81 44.5 81 C 43.121 81 42 79.878 42 78.5 C 42 77.122 43.121 76 44.5 76 z M 69.5 81 C 68.121 81 67 82.121 67 83.5 C 67 84.879 68.121 86 69.5 86 C 70.879 86 72 84.879 72 83.5 C 72 82.121 70.879 81 69.5 81 z M 69.5 82 C 70.327 82 71 82.673 71 83.5 C 71 84.327 70.327 85 69.5 85 C 68.673 85 68 84.327 68 83.5 C 68 82.673 68.673 82 69.5 82 z"/></svg>